{
	"asset":{
		"generator":"Khronos glTF Blender I/O v3.5.30",
		"version":"2.0"
	},
	"extensionsUsed":[
		"KHR_materials_emissive_strength"
	],
	"scene":0,
	"scenes":[
		{
			"name":"Scene",
			"nodes":[
				0
			]
		}
	],
	"nodes":[
		{
			"mesh":0,
			"name":"ocelot.001",
			"rotation":[
				0.7071068286895752,
				0,
				0,
				0.7071068286895752
			]
		}
	],
	"materials":[
		{
			"doubleSided":true,
			"name":"Material.043",
			"pbrMetallicRoughness":{
				"baseColorTexture":{
					"index":0
				},
				"metallicFactor":0,
				"roughnessFactor":0.2999999523162842
			}
		},
		{
			"doubleSided":true,
			"emissiveFactor":[
				0,
				0.02,
				1
			],
			"extensions":{
				"KHR_materials_emissive_strength":{
					"emissiveStrength":50
				}
			},
			"name":"Material.044",
			"pbrMetallicRoughness":{
				"baseColorTexture":{
					"index":1
				},
				"metallicFactor":0,
				"roughnessFactor":0.08636361360549927
			}
		},
		{
			"doubleSided":true,
			"name":"Material.045",
			"pbrMetallicRoughness":{
				"baseColorTexture":{
					"index":2
				},
				"metallicFactor":0,
				"roughnessFactor":0.08636361360549927
			}
		}
	],
	"meshes":[
		{
			"name":"ocelot.001",
			"primitives":[
				{
					"attributes":{
						"POSITION":0,
						"TEXCOORD_0":1,
						"NORMAL":2
					},
					"indices":3,
					"material":0
				},
				{
					"attributes":{
						"POSITION":4,
						"TEXCOORD_0":5,
						"NORMAL":6
					},
					"indices":7,
					"material":1
				},
				{
					"attributes":{
						"POSITION":8,
						"TEXCOORD_0":9,
						"NORMAL":10
					},
					"indices":11,
					"material":2
				}
			]
		}
	],
	"textures":[
		{
			"sampler":0,
			"source":0
		},
		{
			"sampler":0,
			"source":0
		},
		{
			"sampler":0,
			"source":0
		}
	],
	"images":[
		{
			"bufferView":4,
			"mimeType":"image/png",
			"name":"OCELOT_"
		}
	],
	"accessors":[
		{
			"bufferView":0,
			"componentType":5126,
			"count":480,
			"max":[
				0.7399380207061768,
				-0.05277499929070473,
				1.7436569929122925
			],
			"min":[
				-0.7399380207061768,
				-0.6387929916381836,
				0.2401690036058426
			],
			"type":"VEC3"
		},
		{
			"bufferView":1,
			"componentType":5126,
			"count":480,
			"type":"VEC2"
		},
		{
			"bufferView":2,
			"componentType":5126,
			"count":480,
			"type":"VEC3"
		},
		{
			"bufferView":3,
			"componentType":5123,
			"count":684,
			"type":"SCALAR"
		},
		{
			"bufferView":5,
			"componentType":5126,
			"count":8,
			"max":[
				0.375122994184494,
				-0.2086459994316101,
				1.1386569738388062
			],
			"min":[
				-0.375122994184494,
				-0.26413899660110474,
				0.9984570145606995
			],
			"type":"VEC3"
		},
		{
			"bufferView":6,
			"componentType":5126,
			"count":8,
			"type":"VEC2"
		},
		{
			"bufferView":7,
			"componentType":5126,
			"count":8,
			"type":"VEC3"
		},
		{
			"bufferView":8,
			"componentType":5123,
			"count":12,
			"type":"SCALAR"
		},
		{
			"bufferView":9,
			"componentType":5126,
			"count":16,
			"max":[
				0.13282999396324158,
				-0.05127900093793869,
				1.557723045349121
			],
			"min":[
				-0.13282999396324158,
				-0.13119900226593018,
				1.395213007926941
			],
			"type":"VEC3"
		},
		{
			"bufferView":10,
			"componentType":5126,
			"count":16,
			"type":"VEC2"
		},
		{
			"bufferView":11,
			"componentType":5126,
			"count":16,
			"type":"VEC3"
		},
		{
			"bufferView":12,
			"componentType":5123,
			"count":24,
			"type":"SCALAR"
		}
	],
	"bufferViews":[
		{
			"buffer":0,
			"byteLength":5760,
			"byteOffset":0,
			"target":34962
		},
		{
			"buffer":0,
			"byteLength":3840,
			"byteOffset":5760,
			"target":34962
		},
		{
			"buffer":0,
			"byteLength":5760,
			"byteOffset":9600,
			"target":34962
		},
		{
			"buffer":0,
			"byteLength":1368,
			"byteOffset":15360,
			"target":34963
		},
		{
			"buffer":0,
			"byteLength":58314,
			"byteOffset":16728
		},
		{
			"buffer":0,
			"byteLength":96,
			"byteOffset":75044,
			"target":34962
		},
		{
			"buffer":0,
			"byteLength":64,
			"byteOffset":75140,
			"target":34962
		},
		{
			"buffer":0,
			"byteLength":96,
			"byteOffset":75204,
			"target":34962
		},
		{
			"buffer":0,
			"byteLength":24,
			"byteOffset":75300,
			"target":34963
		},
		{
			"buffer":0,
			"byteLength":192,
			"byteOffset":75324,
			"target":34962
		},
		{
			"buffer":0,
			"byteLength":128,
			"byteOffset":75516,
			"target":34962
		},
		{
			"buffer":0,
			"byteLength":192,
			"byteOffset":75644,
			"target":34962
		},
		{
			"buffer":0,
			"byteLength":48,
			"byteOffset":75836,
			"target":34963
		}
	],
	"samplers":[
		{
			"magFilter":9729,
			"minFilter":9987
		}
	],
	"buffers":[
		{
			"byteLength":75884,
			"uri":"data:application/octet-stream;base64,"
		}
	]
}
